<svg viewBox="0 0 80 80" preserveAspectRatio="xMidYMid" xmlns="http://www.w3.org/2000/svg" xmlns:xlink="http://www.w3.org/1999/xlink"><title>Icons/Tomatometer &amp; AS/certified_fresh</title><defs><path id="a" d="M.016.006h75.789V15.62H.015z"/></defs><g fill="none" fill-rule="evenodd"><g transform="translate(2.085 64.365)"><mask id="b" fill="#fff"><use xlink:href="#a"/></mask><g/><path d="M75.706 5.352A23.95 23.95 0 0 0 67.094.006a727 727 0 0 0-3.306 9.532c-.021.061-.106.097-.195.081-.014-.002-2.688-.47-4.648-.737-.07.78-.16 1.673-.16 1.673 4.13.261 7.662 2.266 9.742 5.028.065.073.166.069.196-.009.711-2.87.907-5.931.548-9.016q.005-.05.069-.065a20.3 20.3 0 0 1 6.374-.91c.124.013.12-.107-.008-.23M17.02 10.554c-4.13.261-7.662 2.266-9.742 5.028-.065.073-.166.069-.197-.009a25.4 25.4 0 0 1-.547-9.016q-.005-.05-.07-.065a20.2 20.2 0 0 0-6.373-.91c-.124.013-.121-.107.008-.23A23.95 23.95 0 0 1 8.708.006a726 726 0 0 1 3.305 9.531c.02.061.106.097.195.081.014-.002 2.66-.466 4.652-.738z" fill="#3dad55" mask="url(#b)"/></g><path d="M20.115 15.546c.132.79.048 1.29-.486 1.834a1.65 1.65 0 0 1-1.257.524c-.491-.008-.937-.215-1.33-.6-.386-.379-.595-.813-.613-1.304s.134-.91.478-1.261c.487-.496.888-.562 1.571-.527l-.036-1.59c-1.052-.071-1.97.286-2.733 1.065-.696.71-1.028 1.532-1.019 2.474.016.935.373 1.743 1.083 2.438s1.532 1.056 2.46 1.06 1.737-.352 2.432-1.061c.858-.876 1.203-1.876 1.035-2.986zm3.876-1.782-.618-.979 2.587-1.633-.793-1.256-2.587 1.632-.551-.873 2.726-1.72-.824-1.306-4.31 2.72 3.61 5.72 4.31-2.72-.824-1.305zm5.77-5.156-.785.27-.516-1.507.785-.27c.767-.262 1.17-.156 1.346.356q.267.778-.83 1.151m2.498-1.702c-.488-1.425-1.743-1.872-3.414-1.3l-2.547.873 2.193 6.401 1.662-.57-.68-1.98.658-.226 1.857 1.578 1.908-.655-2.142-1.816c.647-.64.815-1.401.505-2.305m6.237-3.219-5.394.65.185 1.533 1.82-.22.626 5.184 1.753-.211-.625-5.184 1.82-.22zm2.181 6.846 1.754.096.37-6.756-1.755-.096zm9.385-3.719.362-1.501-4.635-1.12L44.2 10.77l1.708.413.585-2.421 2.711.655.35-1.445-2.712-.655.292-1.21zm2.759-.544-2.71 6.198 1.61.704 2.71-6.2zm2.857 7.363.652-.958 2.53 1.722.836-1.23-2.529-1.72.581-.855 2.665 1.815.87-1.277-4.214-2.868-3.807 5.593 4.212 2.868.87-1.276zm8.037 4.643q-1.395 1.263-2.813-.304l-.317-.35 2.726-2.469.31.344q1.427 1.576.095 2.779m2.362-1.318c-.12-.867-.514-1.617-1.162-2.333l-1.638-1.81-5.016 4.54 1.638 1.81c1.225 1.353 3.099 2.143 5.002.42.909-.822 1.297-1.76 1.176-2.627" fill="#0a0b09"/><path fill="#db382a" d="m43.616 22.448-.365-.023"/><path d="M65.873 73.903a775 775 0 0 1 3.306-9.532q.151.053.301.11a27 27 0 0 1 1.372.558z" fill="#0ea248"/><path d="m9.123 65.039.035-.015z" fill="#79c08d"/><path d="m14.093 73.889-4.97-8.85.035-.015c.16-.07.854-.37 1.632-.651a775 775 0 0 1 3.301 9.508z" fill="#0ea248"/><path d="m60.87 74.92.16-1.674c-.07.779-.16 1.668-.16 1.674m4.83-.933q-.011 0-.022-.003z" fill="#309e53"/><path d="M60.87 74.92c0-.006.09-.895.16-1.674a151 151 0 0 1 4.648.738l.021.003h.006zm-41.765 0-4.838-.932.006-.001.02-.003c.008-.001.884-.155 2.006-.337a155 155 0 0 1 2.646-.401l.059.615.05.536z" fill="#129346"/><path d="M65.402 59.05q-.553-.083-1.106-.162c3.548-4.203 5.77-9.477 5.944-15.547.174 6.059-1.662 11.38-4.838 15.709m-51.238.061c-2.547-3.606-4.174-7.948-4.485-12.934a34 34 0 0 1-.059-2.943q.016.687.059 1.378c.353 5.653 2.395 10.477 5.553 14.341q-.535.078-1.068.158" fill="#adadaa"/><path d="M45.317 68.437q.345.097.763.114a53 53 0 0 0-.763-.114M11.935 59.47a37 37 0 0 1-1.7-2.25c-4.212-6.062-6.44-13.184-6.44-20.595 0-9.557 3.75-18.39 10.556-24.872 6.744-6.423 15.829-9.96 25.58-9.96 9.752 0 18.837 3.537 25.581 9.96 6.807 6.482 10.555 15.315 10.555 24.872 0 7.383-2.21 14.482-6.394 20.53a37 37 0 0 1-1.73 2.298q.931.155 1.863.32a37.63 37.63 0 0 0 7.923-23.148C77.729 15.75 60.807.13 39.932.13 19.055.13 2.134 15.75 2.134 36.625a37.63 37.63 0 0 0 7.938 23.168q.93-.167 1.862-.323m54.385 3.506h-.106v-.198h.106q.158 0 .159.095 0 .102-.16.103" fill="#e3662a"/><path d="M66.319 62.778h-.106v.198h.106q.158-.001.159-.103 0-.095-.16-.095m-42.96 1.764c-.552 0-1.043.422-1.043 1.004 0 .574.491.992 1.043.992.569 0 1.042-.4 1.042-.992 0-.591-.482-1.004-1.042-1.004m33.917-.28c-.488 0-.83.303-.922.737h1.803c-.04-.421-.343-.737-.882-.737" fill="#128843"/><path d="m66.475 63.39-.153-.22h-.109v.22h-.216v-.8h.36c.191 0 .34.092.34.283q.002.187-.165.262l.188.255zm-.156-1.033a.6.6 0 0 0-.446.192.64.64 0 0 0-.182.462q0 .272.182.458.181.186.446.185a.6.6 0 0 0 .449-.185.62.62 0 0 0 .185-.458.63.63 0 0 0-.185-.462.6.6 0 0 0-.45-.192m-34.475-2.673c.313-.006.476.906 1.273.865.359-.02.55-.464.367-.773l-.004-.007c-.159-.26-.406-.36-.687-.409-.194-.034-.392-.052-.572-.143-.095-.048-.154-.122-.154-.235 0-.116.046-.202.151-.255.155-.078.322-.074.488-.075a.45.45 0 0 0 .313-.112c.2-.184.241-.52.111-.764-.164-.308-.518-.343-.772-.183-.178.112-.24.29-.289.48-.033.131-.113.337-.381.327-.204-.008-.311-.21-.274-.41.032-.173.094-.326.117-.5.025-.191-.004-.37-.154-.505a.5.5 0 0 0-.404-.129s-.387.012-.519.355c-.16.418.105.55.294.703.106.087.214.174.255.315.031.106.004.223-.078.275-.11.072-.28.06-.404-.045-.144-.121-.189-.412-.47-.522-.234-.091-.54-.006-.645.202-.139.278.039.538.34.659.17.068.733.092.703.378-.026.248-.534.052-.762.137a.5.5 0 0 0-.299.676c.117.262.446.346.682.238.262-.119.484-.653.757-.517.261.13.007.437-.006.737-.012.267.176.528.626.482.27-.027.501-.352.345-.638a2 2 0 0 1-.14-.302c-.046-.162.059-.302.192-.305m7.802 4.991a.92.92 0 0 0-.713.298.98.98 0 0 0-.237.651c0 .623.478.95.95.95a.92.92 0 0 0 .711-.3.97.97 0 0 0 .238-.65c0-.623-.478-.95-.95-.95" fill="#128843"/><path d="M66.937 63.632a.84.84 0 0 1-.618.255.84.84 0 0 1-.615-.255.87.87 0 0 1-.249-.621q0-.368.249-.625a.83.83 0 0 1 .615-.258q.364 0 .618.258t.255.625q0 .363-.255.621m-2.228 4.458c-.466.385-1.08.58-1.821.58-.962 0-1.741-.201-2.44-.659l-.131-.093.91-1.501c1.045.67 1.585.57 1.79.554.453-.035.502-.535.128-.526-.288.006-.855.065-1.697-.327-.589-.36-.972-.78-.972-1.472 0-.598.248-1.087.738-1.455.47-.353.921-.548 1.593-.58.87-.04 1.5.15 2.283.553l.164.109-.83 1.368c-.91-.365-1.38-.464-1.71-.4-.387.073-.331.448-.046.486s.74-.085 1.598.22c.744.297 1.186.78 1.186 1.606 0 .623-.25 1.14-.743 1.537m-4.556-1.99h-3.8c.105.46.613.718 1.083.718.553 0 .96-.07 1.252-.454l1.388 1.305c-.763.812-1.717.972-2.616.972-.894 0-1.635-.27-2.223-.8-.588-.529-.882-1.258-.882-2.175 0-.906.271-1.635.824-2.2.552-.576 1.27-.858 2.14-.858.905 0 1.611.282 2.105.859.494.576.74 1.27.74 2.093zm-8.618 2.41c-1.622.391-3.426-.315-3.841-2.035-.293-1.214.147-2.197.981-2.84a1 1 0 0 1 .247-.152c-.417.036-.67.015-.923.1-.028.01-.053-.02-.04-.046.272-.515.896-.766 1.338-.596l-.536-.47.411-.341.455.672c.252-.563.877-.721 1.207-.412a.033.033 0 0 1-.018.056c-.219.033-.3.26-.282.412l.19-.024c1.553-.199 2.889.575 3.262 2.122.415 1.72-.83 3.162-2.451 3.554m-4.293.019-.132.005c-.231.01-.54.024-.86.024-1.523 0-2.396-.764-2.396-2.242V64.73h-.592v-1.974h.592v-1.561h2.27v1.561h.897v1.974h-.896v1.435c0 .279.119.398.398.398h.719zm-4.417-.044h-2.198v-.643l-.143.153c-.395.423-.892.647-1.438.647-.39 0-.8-.117-1.183-.34-.857-.495-1.368-1.498-1.367-2.683 0-1.18.511-2.178 1.367-2.672.384-.221.79-.338 1.177-.338.547 0 1.046.23 1.443.663l.144.157v-.658h2.198zm-6.71.007h-2.306V65.38q-.002-.735-.622-.736c-.41 0-.492.257-.52.342-.07.254-.082.398-.082.706v2.8h-2.272V65.38q-.002-.735-.633-.736c-.238 0-.394.116-.455.215a1 1 0 0 0-.096.264c-.04.235-.04.319-.04.57v2.8H26.88v-5.735h2.187l-.002.54c.155-.317.747-.69 1.576-.69.683 0 1.228.236 1.574.68l.061.078.066-.074c.413-.468.887-.667 1.584-.667.658 0 2.188.249 2.188 2.554zm-12.716.15c-1.666 0-3.182-1.037-3.182-3.017 0-1.577.933-2.556 2.189-2.888.698-.153 1.116-.177 1.875-.028 1.307.303 2.218 1.293 2.218 2.916 0 1.98-1.434 3.017-3.1 3.017m-4.378-.15h-2.213v-5.35h-1.95v-2.177h6.112v2.176h-1.95zm51.545-8.583a169 169 0 0 0-15.37-2.079q.046.3.047.643v3.306h-2.287v-3.117q-.001-.722-.616-.724c-.429 0-.694.181-.694 1.08v2.761h-2.29v-4.372l-.388-.021q.006.084.007.17l-.012.54h-3.8c.106.459.613.718 1.084.718.552 0 .959-.07 1.251-.455l1.388 1.306c-.763.812-1.717.972-2.616.972-.894 0-1.634-.27-2.223-.8q-.88-.797-.881-2.176.002-.248.03-.477l-.45-.009v.849h-.895v1.433c0 .279.12.398.398.398h.718v1.962l-.132.005c-.23.01-.539.023-.86.023-1.52 0-2.392-.762-2.392-2.24v-1.581h-.592v-.869q-.22.001-.44.005v.86h-.894v1.433c0 .279.118.397.397.397h.718v1.963l-.131.005c-.231.01-.54.023-.86.023-1.52 0-2.393-.763-2.393-2.24V58.02h-.592v-.791q-.315.01-.629.022c.267.447.42 1 .42 1.66 0 1.978-1.376 3.015-3.145 3.015-1.768 0-3.226-1.037-3.226-3.015 0-.524.104-.98.288-1.37l-.416.028a2.26 2.26 0 0 1-1.08 1.504l-.072.043 1.587 2.663h-2.568l-1.43-2.442h-.379v2.442h-2.28v-3.666a169 169 0 0 0-12.461 1.795c-.109.02-.18.091-.156.156a726 726 0 0 1 4.85 13.84c.02.06.105.095.194.08a149.4 149.4 0 0 1 51.385 0c.089.015.174-.02.195-.08a726 726 0 0 1 4.85-13.84c.023-.065-.049-.136-.157-.156M44.701 18.191c2.207-.197 7.033-.085 9.389 2.226.141.138.02.46-.183.404-3.451-.93-8.837 3.65-12.328.689-.097.866-.878 5.047-6.838 4.428-.141-.015-.197-.17-.094-.257.924-.788 2.057-2.96 1.085-4.347-3.034 2.013-4.601 2.1-10.196-.323-.183-.08-.073-.376.14-.424 1.163-.26 3.925-1.266 6.403-1.734a8 8 0 0 1 1.384-.15c-2.564-.61-3.682-1.142-5.37-1.134a.207.207 0 0 1-.145-.356c2.644-2.543 7.437-2.672 9.745-.78l-2.068-4.32 2.513-.377s.656 2.303 1.243 4.374c2.616-2.867 6.666-2.577 8.03-.073.08.15-.052.325-.22.296-1.372-.234-2.314.908-2.51 1.853z" fill="#128843"/><path d="M46.085 56.257c-.488 0-.83.302-.922.737h1.803c-.04-.421-.342-.737-.882-.737m-20.246.514c0-.465-.409-.765-1.042-.765h-.654v1.586h.654c.662 0 1.042-.3 1.042-.82" fill="#db382a"/><path d="M13.215 33.518h9.192V36.8h-5.52v1.83H22v3.177h-5.113v4.565h-3.672zm9.831 0h5.163c3.416 0 5.375 1.643 5.375 4.508 0 1.741-.725 3.015-2.155 3.789l2.716 4.558H29.92l-2.282-3.84h-.919v3.84h-3.673zm11.401 0h9.794V36.8h-5.909v1.44h5.608v3.178h-5.608v1.67h5.91v3.284h-9.795zm12.39 7.844.158.205c.897 1.167 1.972 1.734 3.289 1.734.82 0 1.33-.279 1.33-.728 0-.138 0-.554-1.05-.733l-1.912-.354c-1.085-.184-2-.633-2.72-1.334-.715-.735-1.076-1.633-1.076-2.675 0-1.234.5-2.247 1.485-3.01.982-.759 2.165-1.144 3.518-1.144 1.994 0 3.659.765 4.949 2.273l.131.154-2.348 2.512-.164-.198c-.824-.992-1.71-1.475-2.71-1.475-.876 0-1.188.34-1.188.658 0 .117 0 .471.908.626l1.7.301c2.753.48 4.15 1.919 4.15 4.274 0 1.225-.519 2.232-1.542 2.995-1.015.756-2.234 1.124-3.727 1.124-2.251 0-4.279-1.002-5.424-2.682l-.105-.154zm8.903-7.844h3.673v4.635h3.545v-4.635h3.69v12.855h-3.69V41.63h-3.545v4.742H55.74zM21.868 58.115V54.25H25c2.006 0 3.157.969 3.157 2.657q-.001.35-.068.658l.416-.027c.37-.783 1.061-1.294 1.899-1.516.697-.152 1.207-.176 1.965-.027.775.18 1.408.602 1.797 1.253l.63-.019v-1.183h.592v-1.56h2.269v1.56h.894v1.11l.44-.002V56.05h.592v-1.56h2.268v1.56h.895v1.124l.45.009c.081-.688.341-1.26.793-1.722.553-.576 1.27-.858 2.14-.858.906 0 1.611.282 2.105.858q.689.803.735 1.928l.388.02v-1.352h2.266v.662c.153-.346.822-.824 1.485-.824 1.168 0 1.906.697 2.089 1.936q4.566.407 9.1 1.058c4.029-4.772 6.347-10.923 5.902-18.052-.696-11.147-7.192-17.857-16.563-20.815q.24.185.454.395c.141.138.02.459-.183.404-3.451-.93-8.837 3.65-12.328.689-.097.866-.878 5.047-6.838 4.428-.141-.015-.197-.17-.094-.257.924-.788 2.057-2.96 1.085-4.347-3.034 2.013-4.601 2.1-10.196-.323a.15.15 0 0 1-.089-.127C12.383 25.533 9.067 34.79 9.679 44.612c.353 5.653 2.395 10.477 5.553 14.341a171 171 0 0 1 6.636-.838" fill="#db382a"/><path d="M29.911 37.99c0-.986-.758-1.189-1.897-1.189h-1.295v2.466h1.295c1.7 0 1.897-.728 1.897-1.277" fill="#db382a"/><path fill="#fad41f" d="m29.29 56.562-.027.022zm-.248.216.014-.013zm-.383.478-.001.002zm-.57.309.416-.027v-.001zm10.462-.408.076-.001zm-5.844-1.063-.073-.026zm1.458 1.154.002.001.139-.005-.14.004m8.58-.074.093.002zm-9.328-.725-.023-.015zm-.453-.254-.074-.032zm-2.839-.085-.074.028q.038-.016.074-.028m-.28.115-.062.03zm3.354.088-.058-.031zm15.747.803v-.008zm-5.486-.895-.026.062zm5.385.381-.01-.037zm.06.252-.004-.02zm14.405-41.701-2.726 2.468.317.351q1.418 1.567 2.814.304 1.332-1.203-.094-2.779zM29.245 7.102l-.785.269.516 1.507.785-.27c.73-.25 1.009-.63.83-1.151-.175-.512-.579-.618-1.346-.355"/><path d="M64.901 19.585c-1.903 1.723-3.777.933-5.002-.42l-1.638-1.81 5.016-4.54 1.638 1.81c.648.716 1.041 1.466 1.162 2.333s-.267 1.805-1.176 2.627m-11.64-5.73 3.808-5.593 4.213 2.868-.87 1.277-2.664-1.815-.581.855 2.529 1.72-.837 1.23-2.529-1.722-.652.958 2.666 1.814-.87 1.276zm-3.15-1.387 2.71-6.199 1.61.704-2.71 6.199zm-.558-4.496-.349 1.445-2.711-.655-.585 2.42-1.708-.412 1.59-6.577 4.634 1.12-.362 1.5-2.928-.706-.292 1.21zm-7.122 2.657-1.754-.096.37-6.756 1.753.096zm-5.57-5.19.625 5.184-1.753.21-.625-5.182-1.82.22-.186-1.534 5.394-.65.185 1.533zm-4.873 6.243-1.857-1.578-.657.225.679 1.981-1.662.57-2.193-6.4 2.547-.873c1.671-.573 2.926-.126 3.414 1.299.31.904.142 1.665-.505 2.305l2.142 1.816zm-8.756 4.387-3.61-5.72 4.309-2.72.824 1.305-2.726 1.72.55.874 2.588-1.632.793 1.256-2.587 1.633.618.98 2.726-1.721.824 1.306zm-2.567 2.529q-1.041 1.067-2.432 1.061c-.928-.004-1.75-.364-2.46-1.06-.71-.695-1.067-1.503-1.083-2.438-.01-.942.323-1.764 1.02-2.474.762-.78 1.68-1.136 2.732-1.065l.036 1.59c-.683-.035-1.084.03-1.57.527-.345.352-.498.77-.48 1.261.02.49.228.925.614 1.303.393.386.839.593 1.33.601s.906-.166 1.257-.524c.534-.545.618-1.044.487-1.834l1.584.066c.168 1.11-.177 2.11-1.035 2.986m44.847-6.845c-6.744-6.423-15.829-9.96-25.58-9.96-9.752 0-18.837 3.537-25.581 9.96C7.544 18.235 3.795 27.068 3.795 36.625c0 7.411 2.227 14.533 6.44 20.596a37 37 0 0 0 1.694 2.246c1.099-.184 2.2-.352 3.302-.514-3.158-3.864-5.2-8.688-5.553-14.341-.613-9.823 2.704-19.08 15.768-23.728-.011-.116.083-.264.23-.297 1.162-.26 3.924-1.266 6.402-1.734a8 8 0 0 1 1.384-.15c-2.564-.61-3.682-1.142-5.37-1.134a.207.207 0 0 1-.145-.356c2.644-2.543 7.437-2.672 9.745-.78l-2.068-4.32 2.513-.377s.656 2.303 1.243 4.374c2.617-2.867 6.666-2.577 8.03-.073.08.15-.052.325-.22.296-1.372-.234-2.314.908-2.51 1.853l.02.005c2.074-.185 6.459-.097 8.935 1.83 9.371 2.96 15.867 9.67 16.563 20.816.445 7.13-1.873 13.28-5.902 18.052l-.115-.016c1.256.18 2.51.37 3.762.579a37 37 0 0 0 1.729-2.297c4.183-6.048 6.394-13.147 6.394-20.53 0-9.557-3.748-18.39-10.555-24.872" fill="#f9d320"/><path fill="#fad41f" d="m54.775 56.693-.036-.05zm-.12-.154-.042-.046zm.225.319-.028-.048zm-.39-.486.032.027zm.478.658-.017-.036zm-6.423-1.136q-.036-.057-.074-.113.038.056.073.113m.222.464-.022-.056zm-.1-.236-.042-.08q.023.04.042.08m5.637.105-.08-.052z"/><path d="M66.768 63.47a.6.6 0 0 1-.45.184.6.6 0 0 1-.445-.185.63.63 0 0 1-.182-.458.64.64 0 0 1 .182-.462.6.6 0 0 1 .446-.192q.267 0 .449.192a.63.63 0 0 1 .185.462q.001.272-.185.458m.169-1.084a.84.84 0 0 0-.618-.258.83.83 0 0 0-.615.258.87.87 0 0 0-.249.625q0 .363.249.621.252.254.615.255.364 0 .618-.255a.86.86 0 0 0 .255-.621.86.86 0 0 0-.255-.625m-.618.59h-.106v-.198h.106q.158 0 .159.095 0 .102-.16.103m.379-.103c0-.19-.15-.283-.341-.283h-.36v.8h.216v-.22h.109l.153.22h.245l-.188-.255a.26.26 0 0 0 .166-.262m-12.712 2.083c.415 1.72-.83 3.162-2.451 3.554-1.622.391-3.426-.315-3.841-2.035-.293-1.214.147-2.197.981-2.84a1 1 0 0 1 .247-.152c-.417.036-.67.015-.923.1-.028.01-.053-.02-.04-.046.272-.515.896-.766 1.338-.596l-.536-.47.411-.341.455.672c.252-.563.877-.721 1.207-.412a.033.033 0 0 1-.018.056c-.219.033-.3.26-.282.412l.19-.024c1.553-.199 2.889.575 3.262 2.122m-24.24-6.157c-.3-.121-.478-.38-.339-.659.105-.208.411-.293.646-.202.28.11.325.4.469.522.124.104.293.117.404.045.082-.052.109-.169.078-.275-.04-.14-.15-.228-.255-.315-.189-.153-.455-.285-.294-.703.132-.343.519-.355.519-.355a.5.5 0 0 1 .404.13c.15.133.179.313.154.504-.023.174-.085.327-.117.5-.037.2.07.402.274.41.268.01.348-.196.381-.326.048-.192.111-.369.289-.48.254-.161.608-.126.772.182.13.244.089.58-.11.764a.45.45 0 0 1-.314.112c-.166.001-.333-.003-.488.075-.105.053-.15.14-.15.255 0 .113.058.187.153.235.18.09.378.11.572.143.28.05.528.148.687.41l.004.006c.182.309-.008.754-.367.773-.797.041-.96-.871-1.273-.865-.133.003-.238.143-.192.305.025.09.096.22.14.302.156.286-.075.61-.345.638-.45.046-.638-.215-.626-.482.013-.3.267-.606.006-.737-.273-.136-.495.398-.757.517-.236.108-.565.024-.682-.238a.5.5 0 0 1 .299-.676c.228-.085.736.11.762-.137.03-.286-.534-.31-.704-.378m1.698 3.127c1.77 0 3.144-1.037 3.144-3.015 0-1.623-.91-2.613-2.217-2.915-.758-.15-1.268-.125-1.965.027-1.256.333-2.188 1.311-2.188 2.888 0 1.978 1.458 3.015 3.226 3.015m34.01 4.628c0 .623-.25 1.14-.743 1.537-.466.385-1.08.58-1.821.58-.962 0-1.741-.201-2.44-.659l-.131-.093.91-1.501c1.045.67 1.585.57 1.79.554.453-.035.502-.535.128-.526-.288.006-.855.065-1.697-.327-.589-.36-.972-.78-.972-1.472 0-.598.248-1.087.738-1.455.47-.353.921-.548 1.593-.58.87-.04 1.5.15 2.283.553l.164.109-.83 1.368c-.91-.365-1.38-.464-1.71-.4-.387.073-.331.448-.046.486s.74-.085 1.598.22c.744.297 1.186.78 1.186 1.606m-13.806-4.775h-2.29v-5.721h2.267v.662c.153-.346.822-.824 1.485-.824 1.357 0 2.135.94 2.135 2.577v3.306h-2.287v-3.117c0-.48-.207-.724-.616-.724-.429 0-.694.181-.694 1.08zm-11.29 4.497a.92.92 0 0 1-.712.299c-.471 0-.95-.327-.95-.95 0-.248.085-.478.238-.651a.92.92 0 0 1 .712-.298c.472 0 .95.326.95.949a.97.97 0 0 1-.238.65m.27-2.847-.143-.157c-.397-.434-.896-.663-1.443-.663-.387 0-.793.117-1.177.338-.856.494-1.367 1.493-1.367 2.672 0 1.185.51 2.188 1.367 2.683.384.223.793.34 1.183.34.546 0 1.043-.224 1.438-.647l.143-.153v.643h2.198V62.77h-2.198zm-5.238-5.41h-.592v-1.972h.592v-1.56h2.269v1.56h.894v1.973h-.894v1.433c0 .279.118.397.397.397h.718v1.963l-.131.005c-.231.01-.54.023-.86.023-1.52 0-2.393-.763-2.393-2.24zm6.86 1.836h.72v1.962l-.133.005c-.23.01-.539.023-.86.023-1.52 0-2.392-.762-2.392-2.24v-1.581h-.592V56.05h.592v-1.56h2.268v1.56h.895v1.973h-.895v1.433c0 .279.12.398.398.398M20.971 63.14h-1.95v5.351h-2.212v-5.35h-1.95v-2.177h6.112zm25.553 3.424h.719v1.964l-.132.005c-.231.01-.54.024-.86.024-1.523 0-2.396-.764-2.396-2.242V64.73h-.592v-1.974h.592v-1.561h2.27v1.561h.897v1.974h-.896v1.435c0 .279.119.398.398.398m-10.409-1.386v3.313H33.81v-3.11q-.002-.735-.622-.736c-.41 0-.492.257-.52.342-.07.254-.082.398-.082.706v2.8h-2.272V65.38q-.002-.735-.633-.736c-.238 0-.394.116-.455.215a1 1 0 0 0-.096.264c-.04.235-.04.319-.04.57v2.8h-2.209v-5.735h2.187l-.002.54c.155-.317.747-.69 1.576-.69.683 0 1.228.236 1.574.68l.061.078.066-.074c.413-.468.887-.667 1.584-.667.658 0 2.188.249 2.188 2.554m-12.756 1.36c-.552 0-1.043-.418-1.043-.992 0-.582.491-1.004 1.043-1.004.56 0 1.042.413 1.042 1.004 0 .593-.473.992-1.042.992m.923-3.83c-.76-.149-1.177-.125-1.875.028-1.256.332-2.19 1.311-2.19 2.888 0 1.98 1.517 3.017 3.183 3.017s3.1-1.037 3.1-3.017c0-1.623-.911-2.613-2.218-2.916m-.139-6.702h.654c.633 0 1.042.3 1.042.765 0 .522-.38.82-1.042.82h-.654zm.005 3.33h.38l1.429 2.442h2.567l-1.587-2.663.071-.043c.763-.461 1.15-1.19 1.15-2.165 0-1.688-1.15-2.657-3.157-2.657h-3.132v7.528h2.28zM56.354 65c.092-.434.434-.737.921-.737.54 0 .842.316.882.737zm.966-2.391c-.87 0-1.588.282-2.14.859-.553.564-.824 1.293-.824 2.199 0 .917.294 1.646.882 2.175.588.53 1.33.8 2.223.8.899 0 1.853-.16 2.616-.972l-1.388-1.305c-.292.384-.699.454-1.252.454-.47 0-.978-.259-1.083-.717h3.8l.012-.541c0-.824-.247-1.517-.741-2.093s-1.2-.86-2.105-.86m-11.235-6.351c.54 0 .842.316.882.737h-1.803c.092-.435.434-.737.921-.737m.186 4.379c.899 0 1.853-.16 2.616-.972l-1.388-1.306c-.292.385-.699.455-1.251.455-.47 0-.978-.259-1.084-.718h3.8l.012-.54c0-.824-.247-1.517-.74-2.094-.495-.576-1.2-.858-2.106-.858-.87 0-1.587.282-2.14.858-.553.565-.823 1.294-.823 2.2 0 .917.294 1.646.881 2.175.589.53 1.33.8 2.223.8" fill="#f2e93c"/><path d="M50.284 43.301c-1.317 0-2.392-.567-3.289-1.734l-.157-.205-2.349 2.369.105.154c1.145 1.68 3.173 2.682 5.424 2.682 1.493 0 2.712-.368 3.727-1.124 1.023-.763 1.542-1.77 1.542-2.995 0-2.355-1.397-3.793-4.15-4.274l-1.7-.3c-.908-.156-.908-.51-.908-.627 0-.318.312-.658 1.189-.658.998 0 1.885.483 2.709 1.475l.164.198 2.348-2.512-.131-.154c-1.29-1.508-2.955-2.273-4.949-2.273-1.353 0-2.536.385-3.518 1.144-.985.763-1.485 1.776-1.485 3.01 0 1.042.36 1.94 1.077 2.675.72.701 1.634 1.15 2.719 1.334l1.912.354c1.05.179 1.05.595 1.05.733 0 .449-.51.728-1.33.728m16.365 3.072V33.518h-3.69v4.635h-3.546v-4.635H55.74v12.855h3.673V41.63h3.545v4.742zm-22.408-9.572v-3.283h-9.794v12.855h9.794v-3.284h-5.909v-1.67h5.608v-3.177h-5.608v-1.44zm-21.834 0v-3.283h-9.192v12.855h3.673v-4.565h5.113v-3.177h-5.113V36.8zm5.608 2.466h-1.296v-2.466h1.295c1.139 0 1.897.203 1.897 1.19 0 .548-.197 1.276-1.897 1.276m5.569-1.241c0-2.865-1.96-4.508-5.375-4.508h-5.163v12.855h3.673v-3.84h.919l2.282 3.84h4.225l-2.716-4.558c1.43-.774 2.155-2.048 2.155-3.79" fill="#fffffe"/></g></svg>